STARTFONT 2.1
COMMENT $XConsortium: luBS10.bdf,v 1.7 94/04/02 15:59:28 gildea Exp $
COMMENT  (c) Copyright Bigelow & Holmes 1986, 1985. Lucida is a registered
COMMENT  trademark of Bigelow & Holmes. See LEGAL NOTICE file for terms 
COMMENT  of the license. 
COMMENT GRID 0010 0010 0200 0200
FONT -RFX-Serene-Bold-R-Normal-Sans-10-100-75-75-P-66-windows-1251
SIZE 10 72 72
FONTBOUNDINGBOX 14 11 -1 -2
STARTPROPERTIES 24
FONTNAME_REGISTRY ""
FOUNDRY "RFX"
FAMILY_NAME "Serene"
WEIGHT_NAME "Bold"
SLANT "R"
SETWIDTH_NAME "Normal"
ADD_STYLE_NAME "Sans"
PIXEL_SIZE 10
POINT_SIZE 100
RESOLUTION_X 75
RESOLUTION_Y 75
SPACING "P"
AVERAGE_WIDTH 66
CHARSET_REGISTRY "windows"
CHARSET_ENCODING "1251"
FONT_ASCENT 9
FONT_DESCENT 2
DEFAULT_CHAR 32
COPYRIGHT "Copyright Bigelow & Holmes 1986, 1985."
FACE_NAME "Lucida Sans Bold"
COPYRIGHT2 "Cyrillic and Euro glyphs copyright 2000 Dmitry Yu. Bolkhovityanov, bolkhov@inp.nsk.su"
SOURCEDATE "Fri Jul 21 18:41:06 2000"
PKGVERSION "1.1"
ASSEMBLER "cvtbdf.pl (Linux)"
ENDPROPERTIES
CHARS 244
STARTCHAR space
ENCODING 32
SWIDTH 343 0
DWIDTH 3 0
BBX 0 0 0 0
BITMAP
ENDCHAR
STARTCHAR exclam
ENCODING 33
SWIDTH 265 0
DWIDTH 4 0
BBX 2 7 1 0
BITMAP
C0
C0
C0
40
00
C0
C0
ENDCHAR
STARTCHAR quotedbl
ENCODING 34
SWIDTH 530 0
DWIDTH 5 0
BBX 5 4 0 4
BITMAP
D8
D8
90
90
ENDCHAR
STARTCHAR numbersign
ENCODING 35
SWIDTH 687 0
DWIDTH 7 0
BBX 6 7 1 0
BITMAP
68
68
EC
68
EC
68
68
ENDCHAR
STARTCHAR dollar
ENCODING 36
SWIDTH 687 0
DWIDTH 7 0
BBX 6 9 1 -1
BITMAP
10
7C
D0
D0
78
2C
2C
F8
20
ENDCHAR
STARTCHAR percent
ENCODING 37
SWIDTH 898 0
DWIDTH 9 0
BBX 9 7 0 0
BITMAP
6200
B600
6400
0800
1300
3580
2300
ENDCHAR
STARTCHAR ampersand
ENCODING 38
SWIDTH 792 0
DWIDTH 8 0
BBX 6 7 1 0
BITMAP
70
D8
70
74
D8
CC
74
ENDCHAR
STARTCHAR quotesingle
ENCODING 39
SWIDTH 265 0
DWIDTH 3 0
BBX 2 4 1 4
BITMAP
C0
C0
80
80
ENDCHAR
STARTCHAR parenleft
ENCODING 40
SWIDTH 386 0
DWIDTH 4 0
BBX 3 9 1 -1
BITMAP
20
60
C0
C0
C0
C0
C0
60
20
ENDCHAR
STARTCHAR parenright
ENCODING 41
SWIDTH 386 0
DWIDTH 4 0
BBX 3 9 0 -1
BITMAP
80
C0
60
60
60
60
60
C0
80
ENDCHAR
STARTCHAR asterisk
ENCODING 42
SWIDTH 464 0
DWIDTH 5 0
BBX 5 3 0 4
BITMAP
D8
60
D8
ENDCHAR
STARTCHAR plus
ENCODING 43
SWIDTH 687 0
DWIDTH 7 0
BBX 5 5 1 1
BITMAP
20
20
F8
20
20
ENDCHAR
STARTCHAR comma
ENCODING 44
SWIDTH 343 0
DWIDTH 3 0
BBX 2 4 1 -2
BITMAP
C0
C0
40
80
ENDCHAR
STARTCHAR minus
ENCODING 45
SWIDTH 687 0
DWIDTH 7 0
BBX 5 1 1 3
BITMAP
F8
ENDCHAR
STARTCHAR period
ENCODING 46
SWIDTH 343 0
DWIDTH 3 0
BBX 2 2 1 0
BITMAP
C0
C0
ENDCHAR
STARTCHAR slash
ENCODING 47
SWIDTH 596 0
DWIDTH 6 0
BBX 6 9 0 -1
BITMAP
0C
0C
18
18
30
60
60
C0
C0
ENDCHAR
STARTCHAR zero
ENCODING 48
SWIDTH 687 0
DWIDTH 7 0
BBX 6 7 1 0
BITMAP
78
CC
CC
CC
CC
CC
78
ENDCHAR
STARTCHAR one
ENCODING 49
SWIDTH 687 0
DWIDTH 7 0
BBX 4 7 1 0
BITMAP
30
F0
30
30
30
30
30
ENDCHAR
STARTCHAR two
ENCODING 50
SWIDTH 687 0
DWIDTH 7 0
BBX 6 7 1 0
BITMAP
78
CC
0C
38
60
C0
FC
ENDCHAR
STARTCHAR three
ENCODING 51
SWIDTH 687 0
DWIDTH 7 0
BBX 6 7 1 0
BITMAP
78
CC
0C
38
0C
CC
78
ENDCHAR
STARTCHAR four
ENCODING 52
SWIDTH 687 0
DWIDTH 7 0
BBX 6 7 1 0
BITMAP
18
38
58
98
FC
18
18
ENDCHAR
STARTCHAR five
ENCODING 53
SWIDTH 687 0
DWIDTH 7 0
BBX 6 7 1 0
BITMAP
FC
C0
C0
F8
0C
CC
78
ENDCHAR
STARTCHAR six
ENCODING 54
SWIDTH 687 0
DWIDTH 7 0
BBX 6 7 1 0
BITMAP
78
CC
C0
F8
CC
CC
78
ENDCHAR
STARTCHAR seven
ENCODING 55
SWIDTH 687 0
DWIDTH 7 0
BBX 6 7 1 0
BITMAP
FC
FC
0C
18
30
60
60
ENDCHAR
STARTCHAR eight
ENCODING 56
SWIDTH 687 0
DWIDTH 7 0
BBX 6 7 1 0
BITMAP
78
CC
CC
78
CC
CC
78
ENDCHAR
STARTCHAR nine
ENCODING 57
SWIDTH 687 0
DWIDTH 7 0
BBX 6 7 1 0
BITMAP
78
CC
CC
7C
0C
CC
78
ENDCHAR
STARTCHAR colon
ENCODING 58
SWIDTH 343 0
DWIDTH 3 0
BBX 2 6 1 0
BITMAP
C0
C0
00
00
C0
C0
ENDCHAR
STARTCHAR semicolon
ENCODING 59
SWIDTH 343 0
DWIDTH 3 0
BBX 2 8 1 -2
BITMAP
C0
C0
00
00
C0
C0
40
80
ENDCHAR
STARTCHAR less
ENCODING 60
SWIDTH 687 0
DWIDTH 7 0
BBX 5 5 1 1
BITMAP
18
60
C0
60
18
ENDCHAR
STARTCHAR equal
ENCODING 61
SWIDTH 687 0
DWIDTH 7 0
BBX 5 3 1 2
BITMAP
F8
00
F8
ENDCHAR
STARTCHAR greater
ENCODING 62
SWIDTH 687 0
DWIDTH 7 0
BBX 5 5 1 1
BITMAP
C0
30
18
30
C0
ENDCHAR
STARTCHAR question
ENCODING 63
SWIDTH 572 0
DWIDTH 6 0
BBX 5 7 1 0
BITMAP
F0
18
18
70
00
60
60
ENDCHAR
STARTCHAR at
ENCODING 64
SWIDTH 833 0
DWIDTH 9 0
BBX 7 7 1 0
BITMAP
78
CC
9C
AC
9E
C0
7C
ENDCHAR
STARTCHAR A
ENCODING 65
SWIDTH 773 0
DWIDTH 8 0
BBX 6 7 1 0
BITMAP
30
30
58
58
FC
8C
8C
ENDCHAR
STARTCHAR B
ENCODING 66
SWIDTH 669 0
DWIDTH 7 0
BBX 5 7 1 0
BITMAP
F0
D8
D8
F0
D8
D8
F0
ENDCHAR
STARTCHAR C
ENCODING 67
SWIDTH 726 0
DWIDTH 8 0
BBX 6 7 1 0
BITMAP
3C
60
C0
C0
C0
60
3C
ENDCHAR
STARTCHAR D
ENCODING 68
SWIDTH 819 0
DWIDTH 8 0
BBX 6 7 1 0
BITMAP
F0
D8
CC
CC
CC
D8
F0
ENDCHAR
STARTCHAR E
ENCODING 69
SWIDTH 645 0
DWIDTH 7 0
BBX 5 7 1 0
BITMAP
F8
C0
C0
F0
C0
C0
F8
ENDCHAR
STARTCHAR F
ENCODING 70
SWIDTH 602 0
DWIDTH 6 0
BBX 5 7 1 0
BITMAP
F8
C0
C0
F0
C0
C0
C0
ENDCHAR
STARTCHAR G
ENCODING 71
SWIDTH 759 0
DWIDTH 8 0
BBX 6 7 1 0
BITMAP
3C
60
C0
CC
CC
6C
3C
ENDCHAR
STARTCHAR H
ENCODING 72
SWIDTH 813 0
DWIDTH 8 0
BBX 6 7 1 0
BITMAP
CC
CC
CC
FC
CC
CC
CC
ENDCHAR
STARTCHAR I
ENCODING 73
SWIDTH 361 0
DWIDTH 4 0
BBX 2 7 1 0
BITMAP
C0
C0
C0
C0
C0
C0
C0
ENDCHAR
STARTCHAR J
ENCODING 74
SWIDTH 501 0
DWIDTH 5 0
BBX 4 9 0 -2
BITMAP
30
30
30
30
30
30
30
30
E0
ENDCHAR
STARTCHAR K
ENCODING 75
SWIDTH 753 0
DWIDTH 8 0
BBX 7 7 1 0
BITMAP
CC
D8
D0
F0
D8
CC
C6
ENDCHAR
STARTCHAR L
ENCODING 76
SWIDTH 620 0
DWIDTH 6 0
BBX 5 7 1 0
BITMAP
C0
C0
C0
C0
C0
C0
F8
ENDCHAR
STARTCHAR M
ENCODING 77
SWIDTH 940 0
DWIDTH 10 0
BBX 8 7 1 0
BITMAP
C3
E7
F7
BB
93
93
83
ENDCHAR
STARTCHAR N
ENCODING 78
SWIDTH 783 0
DWIDTH 8 0
BBX 6 7 1 0
BITMAP
C4
E4
F4
BC
9C
8C
84
ENDCHAR
STARTCHAR O
ENCODING 79
SWIDTH 855 0
DWIDTH 9 0
BBX 7 7 1 0
BITMAP
38
6C
C6
C6
C6
6C
38
ENDCHAR
STARTCHAR P
ENCODING 80
SWIDTH 657 0
DWIDTH 7 0
BBX 5 7 1 0
BITMAP
F0
D8
D8
F0
C0
C0
C0
ENDCHAR
STARTCHAR Q
ENCODING 81
SWIDTH 855 0
DWIDTH 9 0
BBX 7 9 1 -2
BITMAP
38
6C
C6
C6
C6
6C
38
0C
06
ENDCHAR
STARTCHAR R
ENCODING 82
SWIDTH 734 0
DWIDTH 7 0
BBX 6 7 1 0
BITMAP
F0
D8
D8
F0
D8
D8
CC
ENDCHAR
STARTCHAR S
ENCODING 83
SWIDTH 594 0
DWIDTH 7 0
BBX 5 7 1 0
BITMAP
78
C0
E0
70
38
18
F0
ENDCHAR
STARTCHAR T
ENCODING 84
SWIDTH 735 0
DWIDTH 7 0
BBX 6 7 1 0
BITMAP
FC
30
30
30
30
30
30
ENDCHAR
STARTCHAR U
ENCODING 85
SWIDTH 783 0
DWIDTH 8 0
BBX 6 7 1 0
BITMAP
CC
CC
CC
CC
CC
CC
78
ENDCHAR
STARTCHAR V
ENCODING 86
SWIDTH 735 0
DWIDTH 8 0
BBX 6 7 1 0
BITMAP
CC
CC
CC
68
78
30
30
ENDCHAR
STARTCHAR W
ENCODING 87
SWIDTH 940 0
DWIDTH 10 0
BBX 9 7 1 0
BITMAP
C180
C980
C980
6D00
6D00
3600
3600
ENDCHAR
STARTCHAR X
ENCODING 88
SWIDTH 699 0
DWIDTH 7 0
BBX 5 7 1 0
BITMAP
D8
D8
70
20
70
D8
D8
ENDCHAR
STARTCHAR Y
ENCODING 89
SWIDTH 738 0
DWIDTH 8 0
BBX 6 7 1 0
BITMAP
CC
CC
68
30
30
30
30
ENDCHAR
STARTCHAR Z
ENCODING 90
SWIDTH 675 0
DWIDTH 7 0
BBX 5 7 1 0
BITMAP
F8
18
30
70
60
C0
F8
ENDCHAR
STARTCHAR bracketleft
ENCODING 91
SWIDTH 386 0
DWIDTH 4 0
BBX 3 9 1 -1
BITMAP
E0
C0
C0
C0
C0
C0
C0
C0
E0
ENDCHAR
STARTCHAR backslash
ENCODING 92
SWIDTH 596 0
DWIDTH 6 0
BBX 6 9 0 -1
BITMAP
C0
C0
60
60
30
18
18
0C
0C
ENDCHAR
STARTCHAR bracketright
ENCODING 93
SWIDTH 386 0
DWIDTH 4 0
BBX 3 9 0 -1
BITMAP
E0
60
60
60
60
60
60
60
E0
ENDCHAR
STARTCHAR asciicircum
ENCODING 94
SWIDTH 687 0
DWIDTH 7 0
BBX 6 6 1 1
BITMAP
30
30
58
58
8C
8C
ENDCHAR
STARTCHAR underscore
ENCODING 95
SWIDTH 500 0
DWIDTH 8 0
BBX 6 1 1 -1
BITMAP
FC
ENDCHAR
STARTCHAR grave
ENCODING 96
SWIDTH 675 0
DWIDTH 7 0
BBX 3 2 2 7
BITMAP
C0
60
ENDCHAR
STARTCHAR a
ENCODING 97
SWIDTH 623 0
DWIDTH 6 0
BBX 6 6 0 0
BITMAP
70
18
78
D8
D8
6C
ENDCHAR
STARTCHAR b
ENCODING 98
SWIDTH 696 0
DWIDTH 7 0
BBX 5 8 1 0
BITMAP
C0
C0
F0
D8
D8
D8
D8
F0
ENDCHAR
STARTCHAR c
ENCODING 99
SWIDTH 545 0
DWIDTH 6 0
BBX 4 6 1 0
BITMAP
70
C0
C0
C0
C0
70
ENDCHAR
STARTCHAR d
ENCODING 100
SWIDTH 696 0
DWIDTH 7 0
BBX 5 8 1 0
BITMAP
18
18
78
D8
D8
D8
D8
68
ENDCHAR
STARTCHAR e
ENCODING 101
SWIDTH 614 0
DWIDTH 7 0
BBX 5 6 1 0
BITMAP
70
D8
D8
F8
C0
78
ENDCHAR
STARTCHAR f
ENCODING 102
SWIDTH 461 0
DWIDTH 5 0
BBX 5 8 0 0
BITMAP
38
60
F8
60
60
60
60
60
ENDCHAR
STARTCHAR g
ENCODING 103
SWIDTH 696 0
DWIDTH 7 0
BBX 5 8 1 -2
BITMAP
78
D8
D8
D8
D8
78
18
F0
ENDCHAR
STARTCHAR h
ENCODING 104
SWIDTH 693 0
DWIDTH 7 0
BBX 5 8 1 0
BITMAP
C0
C0
D0
F8
D8
D8
D8
D8
ENDCHAR
STARTCHAR i
ENCODING 105
SWIDTH 361 0
DWIDTH 4 0
BBX 2 8 1 0
BITMAP
C0
00
C0
C0
C0
C0
C0
C0
ENDCHAR
STARTCHAR j
ENCODING 106
SWIDTH 361 0
DWIDTH 4 0
BBX 4 10 -1 -2
BITMAP
30
00
30
30
30
30
30
30
30
E0
ENDCHAR
STARTCHAR k
ENCODING 107
SWIDTH 681 0
DWIDTH 7 0
BBX 6 8 1 0
BITMAP
C0
C0
C8
D0
E0
F0
D8
CC
ENDCHAR
STARTCHAR l
ENCODING 108
SWIDTH 361 0
DWIDTH 4 0
BBX 2 8 1 0
BITMAP
C0
C0
C0
C0
C0
C0
C0
C0
ENDCHAR
STARTCHAR m
ENCODING 109
SWIDTH 1006 0
DWIDTH 10 0
BBX 8 6 1 0
BITMAP
B6
DB
DB
DB
DB
DB
ENDCHAR
STARTCHAR n
ENCODING 110
SWIDTH 693 0
DWIDTH 7 0
BBX 5 6 1 0
BITMAP
B0
D8
D8
D8
D8
D8
ENDCHAR
STARTCHAR o
ENCODING 111
SWIDTH 675 0
DWIDTH 7 0
BBX 5 6 1 0
BITMAP
70
D8
D8
D8
D8
70
ENDCHAR
STARTCHAR p
ENCODING 112
SWIDTH 696 0
DWIDTH 7 0
BBX 5 8 1 -2
BITMAP
B0
D8
D8
D8
D8
F0
C0
C0
ENDCHAR
STARTCHAR q
ENCODING 113
SWIDTH 696 0
DWIDTH 7 0
BBX 5 8 1 -2
BITMAP
78
D8
D8
D8
D8
78
18
18
ENDCHAR
STARTCHAR r
ENCODING 114
SWIDTH 500 0
DWIDTH 5 0
BBX 4 6 1 0
BITMAP
D0
F0
C0
C0
C0
C0
ENDCHAR
STARTCHAR s
ENCODING 115
SWIDTH 622 0
DWIDTH 6 0
BBX 4 6 1 0
BITMAP
70
C0
E0
70
30
E0
ENDCHAR
STARTCHAR t
ENCODING 116
SWIDTH 436 0
DWIDTH 5 0
BBX 4 7 0 0
BITMAP
60
F0
60
60
60
60
30
ENDCHAR
STARTCHAR u
ENCODING 117
SWIDTH 693 0
DWIDTH 7 0
BBX 5 6 1 0
BITMAP
D8
D8
D8
D8
D8
68
ENDCHAR
STARTCHAR v
ENCODING 118
SWIDTH 663 0
DWIDTH 8 0
BBX 6 6 1 0
BITMAP
CC
CC
68
68
30
30
ENDCHAR
STARTCHAR w
ENCODING 119
SWIDTH 885 0
DWIDTH 9 0
BBX 7 6 1 0
BITMAP
C2
DA
DA
DA
6C
6C
ENDCHAR
STARTCHAR x
ENCODING 120
SWIDTH 568 0
DWIDTH 6 0
BBX 4 6 1 0
BITMAP
D0
D0
60
60
B0
B0
ENDCHAR
STARTCHAR y
ENCODING 121
SWIDTH 645 0
DWIDTH 7 0
BBX 6 8 1 -2
BITMAP
CC
CC
68
68
30
30
60
60
ENDCHAR
STARTCHAR z
ENCODING 122
SWIDTH 608 0
DWIDTH 6 0
BBX 4 6 1 0
BITMAP
F0
30
60
60
C0
F0
ENDCHAR
STARTCHAR braceleft
ENCODING 123
SWIDTH 386 0
DWIDTH 4 0
BBX 4 9 0 -1
BITMAP
30
60
60
20
C0
20
60
60
30
ENDCHAR
STARTCHAR bar
ENCODING 124
SWIDTH 265 0
DWIDTH 4 0
BBX 2 9 1 -1
BITMAP
C0
C0
C0
C0
C0
C0
C0
C0
C0
ENDCHAR
STARTCHAR braceright
ENCODING 125
SWIDTH 386 0
DWIDTH 4 0
BBX 4 9 0 -1
BITMAP
C0
60
60
40
30
40
60
60
C0
ENDCHAR
STARTCHAR asciitilde
ENCODING 126
SWIDTH 687 0
DWIDTH 7 0
BBX 6 2 1 3
BITMAP
74
B8
ENDCHAR
STARTCHAR afii10051
ENCODING 128
SWIDTH 1000 0
DWIDTH 10 0
BBX 8 7 1 0
BITMAP
FC
30
30
3E
33
33
36
ENDCHAR
STARTCHAR afii10052
ENCODING 129
SWIDTH 600 0
DWIDTH 6 0
BBX 5 9 1 0
BITMAP
30
60
00
F8
C0
C0
C0
C0
C0
ENDCHAR
STARTCHAR quotesinglbase
ENCODING 130
SWIDTH 265 0
DWIDTH 3 0
BBX 2 4 0 -2
BITMAP
C0
C0
40
80
ENDCHAR
STARTCHAR afii10100
ENCODING 131
SWIDTH 500 0
DWIDTH 5 0
BBX 4 6 1 0
BITMAP
F0
C0
C0
C0
C0
C0
ENDCHAR
STARTCHAR quotedblbase
ENCODING 132
SWIDTH 530 0
DWIDTH 6 0
BBX 5 4 0 -2
BITMAP
D8
D8
48
90
ENDCHAR
STARTCHAR ellipsis
ENCODING 133
SWIDTH 1000 0
DWIDTH 7 0
BBX 5 2 1 0
BITMAP
88
88
ENDCHAR
STARTCHAR dagger
ENCODING 134
SWIDTH 693 0
DWIDTH 7 0
BBX 6 8 1 -1
BITMAP
30
30
FC
30
30
30
30
30
ENDCHAR
STARTCHAR daggerdbl
ENCODING 135
SWIDTH 693 0
DWIDTH 7 0
BBX 6 8 1 -1
BITMAP
30
30
FC
30
30
FC
30
30
ENDCHAR
STARTCHAR Euro
ENCODING 136
SWIDTH 800 0
DWIDTH 8 0
BBX 7 7 0 0
BITMAP
3E
60
FC
60
FC
60
3E
ENDCHAR
STARTCHAR perthousand
ENCODING 137
SWIDTH 1313 0
DWIDTH 13 0
BBX 12 8 1 0
BITMAP
0100
6300
B200
6400
0800
1360
35B0
2360
ENDCHAR
STARTCHAR afii10058
ENCODING 138
SWIDTH 1100 0
DWIDTH 11 0
BBX 9 7 1 0
BITMAP
7C00
6C00
6C00
6F00
6D80
6D80
CF00
ENDCHAR
STARTCHAR guilsinglleft
ENCODING 139
SWIDTH 361 0
DWIDTH 4 0
BBX 3 5 0 1
BITMAP
20
60
C0
60
20
ENDCHAR
STARTCHAR afii10059
ENCODING 140
SWIDTH 1100 0
DWIDTH 11 0
BBX 9 7 1 0
BITMAP
CC00
CC00
CC00
FF00
CD80
CD80
CF00
ENDCHAR
STARTCHAR afii10061
ENCODING 141
SWIDTH 800 0
DWIDTH 8 0
BBX 7 9 1 0
BITMAP
18
30
00
CC
D8
F0
D8
CC
C6
ENDCHAR
STARTCHAR afii10060
ENCODING 142
SWIDTH 1000 0
DWIDTH 10 0
BBX 8 7 1 0
BITMAP
FC
30
30
3E
33
33
33
ENDCHAR
STARTCHAR afii10145
ENCODING 143
SWIDTH 800 0
DWIDTH 8 0
BBX 6 8 1 -1
BITMAP
CC
CC
CC
CC
CC
CC
FC
30
ENDCHAR
STARTCHAR afii10099
ENCODING 144
SWIDTH 700 0
DWIDTH 7 0
BBX 6 10 0 -2
BITMAP
60
F0
68
7C
6C
6C
6C
6C
0C
18
ENDCHAR
STARTCHAR quoteleft
ENCODING 145
SWIDTH 265 0
DWIDTH 3 0
BBX 2 4 0 4
BITMAP
40
80
C0
C0
ENDCHAR
STARTCHAR quoteright
ENCODING 146
SWIDTH 265 0
DWIDTH 3 0
BBX 2 4 1 4
BITMAP
C0
C0
40
80
ENDCHAR
STARTCHAR quotedblleft
ENCODING 147
SWIDTH 530 0
DWIDTH 6 0
BBX 5 4 0 4
BITMAP
48
90
D8
D8
ENDCHAR
STARTCHAR quotedblright
ENCODING 148
SWIDTH 530 0
DWIDTH 6 0
BBX 5 4 1 4
BITMAP
D8
D8
48
90
ENDCHAR
STARTCHAR bullet
ENCODING 149
SWIDTH 687 0
DWIDTH 7 0
BBX 3 3 2 2
BITMAP
E0
E0
E0
ENDCHAR
STARTCHAR endash
ENCODING 150
SWIDTH 500 0
DWIDTH 5 0
BBX 4 1 1 3
BITMAP
F0
ENDCHAR
STARTCHAR emdash
ENCODING 151
SWIDTH 1000 0
DWIDTH 10 0
BBX 9 1 1 3
BITMAP
FF80
ENDCHAR
STARTCHAR trademark
ENCODING 153
SWIDTH 901 0
DWIDTH 9 0
BBX 8 3 1 4
BITMAP
FB
55
55
ENDCHAR
STARTCHAR afii10106
ENCODING 154
SWIDTH 1000 0
DWIDTH 10 0
BBX 9 6 0 0
BITMAP
7C00
6C00
6F00
6D80
6D80
CF00
ENDCHAR
STARTCHAR guilsinglright
ENCODING 155
SWIDTH 361 0
DWIDTH 4 0
BBX 3 5 1 1
BITMAP
80
C0
60
C0
80
ENDCHAR
STARTCHAR afii10107
ENCODING 156
SWIDTH 1000 0
DWIDTH 10 0
BBX 8 6 1 0
BITMAP
D8
D8
FE
DB
DB
DE
ENDCHAR
STARTCHAR afii10109
ENCODING 157
SWIDTH 700 0
DWIDTH 7 0
BBX 6 6 1 0
BITMAP
C8
D0
E0
F0
D8
CC
ENDCHAR
STARTCHAR afii10108
ENCODING 158
SWIDTH 700 0
DWIDTH 7 0
BBX 6 8 0 0
BITMAP
60
F0
68
7C
6C
6C
6C
6C
ENDCHAR
STARTCHAR afii10193
ENCODING 159
SWIDTH 700 0
DWIDTH 7 0
BBX 5 7 1 -1
BITMAP
D8
D8
D8
D8
D8
F8
30
ENDCHAR
STARTCHAR space
ENCODING 160
SWIDTH 343 0
DWIDTH 3 0
BBX 0 0 0 0
BITMAP
ENDCHAR
STARTCHAR afii10062
ENCODING 161
SWIDTH 800 0
DWIDTH 8 0
BBX 6 9 1 0
BITMAP
78
00
CC
CC
CC
68
78
30
E0
ENDCHAR
STARTCHAR afii10110
ENCODING 162
SWIDTH 700 0
DWIDTH 7 0
BBX 6 10 1 -2
BITMAP
30
00
CC
CC
68
68
30
30
60
60
ENDCHAR
STARTCHAR afii10057
ENCODING 163
SWIDTH 501 0
DWIDTH 5 0
BBX 4 9 0 -2
BITMAP
30
30
30
30
30
30
30
30
E0
ENDCHAR
STARTCHAR currency
ENCODING 164
SWIDTH 687 0
DWIDTH 7 0
BBX 7 7 0 0
BITMAP
82
7C
6C
6C
6C
7C
82
ENDCHAR
STARTCHAR afii10050
ENCODING 165
SWIDTH 600 0
DWIDTH 6 0
BBX 5 8 1 0
BITMAP
18
F8
C0
C0
C0
C0
C0
C0
ENDCHAR
STARTCHAR brokenbar
ENCODING 166
SWIDTH 265 0
DWIDTH 4 0
BBX 2 9 1 -1
BITMAP
C0
C0
C0
C0
00
C0
C0
C0
C0
ENDCHAR
STARTCHAR section
ENCODING 167
SWIDTH 693 0
DWIDTH 7 0
BBX 5 8 1 -1
BITMAP
78
C0
F0
98
C8
78
18
F0
ENDCHAR
STARTCHAR afii10023
ENCODING 168
SWIDTH 645 0
DWIDTH 7 0
BBX 5 9 1 0
BITMAP
48
48
00
F8
C0
F0
C0
C0
F8
ENDCHAR
STARTCHAR copyright
ENCODING 169
SWIDTH 825 0
DWIDTH 9 0
BBX 7 7 1 0
BITMAP
38
44
9A
A2
9A
44
38
ENDCHAR
STARTCHAR afii10053
ENCODING 170
SWIDTH 800 0
DWIDTH 8 0
BBX 6 7 1 0
BITMAP
3C
60
C0
F0
C0
60
3C
ENDCHAR
STARTCHAR guillemotleft
ENCODING 171
SWIDTH 614 0
DWIDTH 7 0
BBX 6 5 0 1
BITMAP
24
6C
D8
6C
24
ENDCHAR
STARTCHAR logicalnot
ENCODING 172
SWIDTH 687 0
DWIDTH 7 0
BBX 5 3 1 1
BITMAP
F8
08
08
ENDCHAR
STARTCHAR hyphen
ENCODING 173
SWIDTH 289 0
DWIDTH 3 0
BBX 2 1 1 3
BITMAP
C0
ENDCHAR
STARTCHAR registered
ENCODING 174
SWIDTH 687 0
DWIDTH 7 0
BBX 7 7 0 0
BITMAP
38
44
BA
B2
AA
44
38
ENDCHAR
STARTCHAR afii10056
ENCODING 175
SWIDTH 361 0
DWIDTH 4 0
BBX 4 9 0 0
BITMAP
90
90
00
60
60
60
60
60
60
ENDCHAR
STARTCHAR degree
ENCODING 176
SWIDTH 241 0
DWIDTH 3 0
BBX 3 3 0 4
BITMAP
40
A0
40
ENDCHAR
STARTCHAR plusminus
ENCODING 177
SWIDTH 687 0
DWIDTH 7 0
BBX 5 7 1 0
BITMAP
20
20
F8
20
20
00
F8
ENDCHAR
STARTCHAR afii10055
ENCODING 178
SWIDTH 361 0
DWIDTH 4 0
BBX 2 7 1 0
BITMAP
C0
C0
C0
C0
C0
C0
C0
ENDCHAR
STARTCHAR afii10103
ENCODING 179
SWIDTH 361 0
DWIDTH 4 0
BBX 2 8 1 0
BITMAP
C0
00
C0
C0
C0
C0
C0
C0
ENDCHAR
STARTCHAR afii10098
ENCODING 180
SWIDTH 500 0
DWIDTH 5 0
BBX 4 7 1 0
BITMAP
30
F0
C0
C0
C0
C0
C0
ENDCHAR
STARTCHAR mu
ENCODING 181
SWIDTH 699 0
DWIDTH 7 0
BBX 5 8 1 -2
BITMAP
D8
D8
D8
D8
D8
E8
C0
C0
ENDCHAR
STARTCHAR paragraph
ENCODING 182
SWIDTH 693 0
DWIDTH 7 0
BBX 6 8 0 -1
BITMAP
7C
F4
F4
74
14
14
14
14
ENDCHAR
STARTCHAR periodcentered
ENCODING 183
SWIDTH 343 0
DWIDTH 7 0
BBX 2 2 3 2
BITMAP
C0
C0
ENDCHAR
STARTCHAR afii10071
ENCODING 184
SWIDTH 614 0
DWIDTH 7 0
BBX 5 9 1 0
BITMAP
48
48
00
70
D8
D8
F8
C0
78
ENDCHAR
STARTCHAR afii61352
ENCODING 185
SWIDTH 1100 0
DWIDTH 11 0
BBX 9 7 1 0
BITMAP
C400
E400
F580
BD80
9C00
8D80
8400
ENDCHAR
STARTCHAR afii10101
ENCODING 186
SWIDTH 600 0
DWIDTH 6 0
BBX 4 6 1 0
BITMAP
70
C0
E0
C0
C0
70
ENDCHAR
STARTCHAR guillemotright
ENCODING 187
SWIDTH 614 0
DWIDTH 7 0
BBX 6 5 1 1
BITMAP
90
D8
6C
D8
90
ENDCHAR
STARTCHAR afii10105
ENCODING 188
SWIDTH 361 0
DWIDTH 4 0
BBX 4 10 -1 -2
BITMAP
30
00
30
30
30
30
30
30
30
E0
ENDCHAR
STARTCHAR afii10054
ENCODING 189
SWIDTH 594 0
DWIDTH 7 0
BBX 5 7 1 0
BITMAP
78
C0
E0
70
38
18
F0
ENDCHAR
STARTCHAR afii10102
ENCODING 190
SWIDTH 622 0
DWIDTH 6 0
BBX 4 6 1 0
BITMAP
70
C0
E0
70
30
E0
ENDCHAR
STARTCHAR afii10104
ENCODING 191
SWIDTH 361 0
DWIDTH 4 0
BBX 4 9 0 0
BITMAP
90
90
00
60
60
60
60
60
60
ENDCHAR
STARTCHAR afii10017
ENCODING 192
SWIDTH 800 0
DWIDTH 8 0
BBX 6 7 1 0
BITMAP
30
30
58
58
FC
8C
8C
ENDCHAR
STARTCHAR afii10018
ENCODING 193
SWIDTH 700 0
DWIDTH 7 0
BBX 5 7 1 0
BITMAP
F8
C0
C0
F0
D8
D8
F0
ENDCHAR
STARTCHAR afii10019
ENCODING 194
SWIDTH 700 0
DWIDTH 7 0
BBX 5 7 1 0
BITMAP
F0
D8
D8
F0
D8
D8
F0
ENDCHAR
STARTCHAR afii10020
ENCODING 195
SWIDTH 600 0
DWIDTH 6 0
BBX 5 7 1 0
BITMAP
F8
C0
C0
C0
C0
C0
C0
ENDCHAR
STARTCHAR afii10021
ENCODING 196
SWIDTH 800 0
DWIDTH 8 0
BBX 8 8 0 -1
BITMAP
3E
36
36
36
66
66
FF
C3
ENDCHAR
STARTCHAR afii10022
ENCODING 197
SWIDTH 700 0
DWIDTH 7 0
BBX 5 7 1 0
BITMAP
F8
C0
C0
F0
C0
C0
F8
ENDCHAR
STARTCHAR afii10024
ENCODING 198
SWIDTH 1200 0
DWIDTH 12 0
BBX 10 7 1 0
BITMAP
CCC0
6D80
2D00
3F00
6D80
CCC0
CCC0
ENDCHAR
STARTCHAR afii10025
ENCODING 199
SWIDTH 700 0
DWIDTH 7 0
BBX 5 7 1 0
BITMAP
70
D8
18
30
18
D8
70
ENDCHAR
STARTCHAR afii10026
ENCODING 200
SWIDTH 800 0
DWIDTH 8 0
BBX 6 7 1 0
BITMAP
84
8C
9C
BC
F4
E4
C4
ENDCHAR
STARTCHAR afii10027
ENCODING 201
SWIDTH 800 0
DWIDTH 8 0
BBX 6 9 1 0
BITMAP
78
00
84
8C
9C
BC
F4
E4
C4
ENDCHAR
STARTCHAR afii10028
ENCODING 202
SWIDTH 800 0
DWIDTH 8 0
BBX 7 7 1 0
BITMAP
CC
D8
D0
F0
D8
CC
C6
ENDCHAR
STARTCHAR afii10029
ENCODING 203
SWIDTH 800 0
DWIDTH 8 0
BBX 6 7 1 0
BITMAP
7C
6C
6C
6C
6C
6C
CC
ENDCHAR
STARTCHAR afii10030
ENCODING 204
SWIDTH 1000 0
DWIDTH 10 0
BBX 8 7 1 0
BITMAP
C3
E7
F7
BB
93
93
83
ENDCHAR
STARTCHAR afii10031
ENCODING 205
SWIDTH 800 0
DWIDTH 8 0
BBX 6 7 1 0
BITMAP
CC
CC
CC
FC
CC
CC
CC
ENDCHAR
STARTCHAR afii10032
ENCODING 206
SWIDTH 900 0
DWIDTH 9 0
BBX 7 7 1 0
BITMAP
38
6C
C6
C6
C6
6C
38
ENDCHAR
STARTCHAR afii10033
ENCODING 207
SWIDTH 800 0
DWIDTH 8 0
BBX 6 7 1 0
BITMAP
FC
CC
CC
CC
CC
CC
CC
ENDCHAR
STARTCHAR afii10034
ENCODING 208
SWIDTH 700 0
DWIDTH 7 0
BBX 5 7 1 0
BITMAP
F0
D8
D8
F0
C0
C0
C0
ENDCHAR
STARTCHAR afii10035
ENCODING 209
SWIDTH 800 0
DWIDTH 8 0
BBX 6 7 1 0
BITMAP
3C
60
C0
C0
C0
60
3C
ENDCHAR
STARTCHAR afii10036
ENCODING 210
SWIDTH 700 0
DWIDTH 7 0
BBX 6 7 1 0
BITMAP
FC
30
30
30
30
30
30
ENDCHAR
STARTCHAR afii10037
ENCODING 211
SWIDTH 800 0
DWIDTH 8 0
BBX 6 7 1 0
BITMAP
CC
CC
CC
68
78
30
E0
ENDCHAR
STARTCHAR afii10038
ENCODING 212
SWIDTH 1000 0
DWIDTH 10 0
BBX 8 7 1 0
BITMAP
18
7E
DB
DB
DB
7E
18
ENDCHAR
STARTCHAR afii10039
ENCODING 213
SWIDTH 700 0
DWIDTH 7 0
BBX 5 7 1 0
BITMAP
D8
D8
70
20
70
D8
D8
ENDCHAR
STARTCHAR afii10040
ENCODING 214
SWIDTH 800 0
DWIDTH 8 0
BBX 7 8 1 -1
BITMAP
CC
CC
CC
CC
CC
CC
FE
06
ENDCHAR
STARTCHAR afii10041
ENCODING 215
SWIDTH 800 0
DWIDTH 8 0
BBX 6 7 1 0
BITMAP
CC
CC
CC
7C
0C
0C
0C
ENDCHAR
STARTCHAR afii10042
ENCODING 216
SWIDTH 1200 0
DWIDTH 12 0
BBX 10 7 1 0
BITMAP
CCC0
CCC0
CCC0
CCC0
CCC0
CCC0
FFC0
ENDCHAR
STARTCHAR afii10043
ENCODING 217
SWIDTH 1200 0
DWIDTH 12 0
BBX 11 8 1 -1
BITMAP
CCC0
CCC0
CCC0
CCC0
CCC0
CCC0
FFE0
0060
ENDCHAR
STARTCHAR afii10044
ENCODING 218
SWIDTH 800 0
DWIDTH 8 0
BBX 6 7 1 0
BITMAP
E0
60
60
78
6C
6C
78
ENDCHAR
STARTCHAR afii10045
ENCODING 219
SWIDTH 1000 0
DWIDTH 10 0
BBX 8 7 1 0
BITMAP
C3
C3
C3
F3
DB
DB
F3
ENDCHAR
STARTCHAR afii10046
ENCODING 220
SWIDTH 700 0
DWIDTH 7 0
BBX 5 7 1 0
BITMAP
C0
C0
C0
F0
D8
D8
F0
ENDCHAR
STARTCHAR afii10047
ENCODING 221
SWIDTH 800 0
DWIDTH 8 0
BBX 6 7 1 0
BITMAP
F0
18
0C
3C
0C
18
F0
ENDCHAR
STARTCHAR afii10048
ENCODING 222
SWIDTH 1200 0
DWIDTH 12 0
BBX 10 7 1 0
BITMAP
C700
CD80
D8C0
F8C0
D8C0
CD80
C700
ENDCHAR
STARTCHAR afii10049
ENCODING 223
SWIDTH 700 0
DWIDTH 7 0
BBX 6 7 0 0
BITMAP
3C
6C
6C
3C
6C
6C
CC
ENDCHAR
STARTCHAR afii10065
ENCODING 224
SWIDTH 600 0
DWIDTH 6 0
BBX 6 6 0 0
BITMAP
70
18
78
D8
D8
6C
ENDCHAR
STARTCHAR afii10066
ENCODING 225
SWIDTH 700 0
DWIDTH 7 0
BBX 5 8 1 0
BITMAP
78
C0
F0
D8
D8
D8
D8
70
ENDCHAR
STARTCHAR afii10067
ENCODING 226
SWIDTH 700 0
DWIDTH 7 0
BBX 5 6 1 0
BITMAP
F0
D8
F0
D8
D8
F0
ENDCHAR
STARTCHAR afii10068
ENCODING 227
SWIDTH 500 0
DWIDTH 5 0
BBX 4 6 1 0
BITMAP
F0
C0
C0
C0
C0
C0
ENDCHAR
STARTCHAR afii10069
ENCODING 228
SWIDTH 700 0
DWIDTH 7 0
BBX 7 7 0 -1
BITMAP
3C
2C
2C
2C
4C
FE
C6
ENDCHAR
STARTCHAR afii10070
ENCODING 229
SWIDTH 700 0
DWIDTH 7 0
BBX 5 6 1 0
BITMAP
70
D8
D8
F8
C0
78
ENDCHAR
STARTCHAR afii10072
ENCODING 230
SWIDTH 1000 0
DWIDTH 10 0
BBX 8 6 1 0
BITMAP
99
5A
3C
7E
DB
DB
ENDCHAR
STARTCHAR afii10073
ENCODING 231
SWIDTH 700 0
DWIDTH 7 0
BBX 5 6 1 0
BITMAP
F0
18
70
18
18
F0
ENDCHAR
STARTCHAR afii10074
ENCODING 232
SWIDTH 700 0
DWIDTH 7 0
BBX 5 6 1 0
BITMAP
88
98
B8
E8
C8
88
ENDCHAR
STARTCHAR afii10075
ENCODING 233
SWIDTH 700 0
DWIDTH 7 0
BBX 5 8 1 0
BITMAP
70
00
88
98
B8
E8
C8
88
ENDCHAR
STARTCHAR afii10076
ENCODING 234
SWIDTH 700 0
DWIDTH 7 0
BBX 6 6 1 0
BITMAP
C8
D0
E0
F0
D8
CC
ENDCHAR
STARTCHAR afii10077
ENCODING 235
SWIDTH 700 0
DWIDTH 7 0
BBX 6 6 0 0
BITMAP
7C
6C
6C
6C
6C
CC
ENDCHAR
STARTCHAR afii10078
ENCODING 236
SWIDTH 1000 0
DWIDTH 10 0
BBX 8 6 1 0
BITMAP
C3
E7
F7
BB
93
83
ENDCHAR
STARTCHAR afii10079
ENCODING 237
SWIDTH 700 0
DWIDTH 7 0
BBX 5 6 1 0
BITMAP
D8
D8
F8
D8
D8
D8
ENDCHAR
STARTCHAR afii10080
ENCODING 238
SWIDTH 700 0
DWIDTH 7 0
BBX 5 6 1 0
BITMAP
70
D8
D8
D8
D8
70
ENDCHAR
STARTCHAR afii10081
ENCODING 239
SWIDTH 700 0
DWIDTH 7 0
BBX 5 6 1 0
BITMAP
F8
D8
D8
D8
D8
D8
ENDCHAR
STARTCHAR afii10082
ENCODING 240
SWIDTH 700 0
DWIDTH 7 0
BBX 5 8 1 -2
BITMAP
B0
D8
D8
D8
D8
F0
C0
C0
ENDCHAR
STARTCHAR afii10083
ENCODING 241
SWIDTH 600 0
DWIDTH 6 0
BBX 4 6 1 0
BITMAP
70
C0
C0
C0
C0
70
ENDCHAR
STARTCHAR afii10084
ENCODING 242
SWIDTH 500 0
DWIDTH 5 0
BBX 4 6 1 0
BITMAP
F0
60
60
60
60
60
ENDCHAR
STARTCHAR afii10085
ENCODING 243
SWIDTH 700 0
DWIDTH 7 0
BBX 6 8 1 -2
BITMAP
CC
CC
68
68
30
30
60
60
ENDCHAR
STARTCHAR afii10086
ENCODING 244
SWIDTH 1000 0
DWIDTH 10 0
BBX 8 10 1 -2
BITMAP
18
18
7E
DB
DB
DB
DB
7E
18
18
ENDCHAR
STARTCHAR afii10087
ENCODING 245
SWIDTH 600 0
DWIDTH 6 0
BBX 4 6 1 0
BITMAP
D0
D0
60
60
B0
B0
ENDCHAR
STARTCHAR afii10088
ENCODING 246
SWIDTH 700 0
DWIDTH 7 0
BBX 6 7 1 -1
BITMAP
D8
D8
D8
D8
D8
FC
0C
ENDCHAR
STARTCHAR afii10089
ENCODING 247
SWIDTH 700 0
DWIDTH 7 0
BBX 5 6 1 0
BITMAP
D8
D8
D8
78
18
18
ENDCHAR
STARTCHAR afii10090
ENCODING 248
SWIDTH 1000 0
DWIDTH 10 0
BBX 8 6 1 0
BITMAP
DB
DB
DB
DB
DB
FF
ENDCHAR
STARTCHAR afii10091
ENCODING 249
SWIDTH 1000 0
DWIDTH 10 0
BBX 9 7 1 -1
BITMAP
DB00
DB00
DB00
DB00
DB00
FF80
0180
ENDCHAR
STARTCHAR afii10092
ENCODING 250
SWIDTH 700 0
DWIDTH 7 0
BBX 6 6 0 0
BITMAP
E0
60
78
6C
6C
78
ENDCHAR
STARTCHAR afii10093
ENCODING 251
SWIDTH 1000 0
DWIDTH 10 0
BBX 8 6 1 0
BITMAP
C3
C3
F3
DB
DB
F3
ENDCHAR
STARTCHAR afii10094
ENCODING 252
SWIDTH 700 0
DWIDTH 7 0
BBX 5 6 1 0
BITMAP
C0
C0
F0
D8
D8
F0
ENDCHAR
STARTCHAR afii10095
ENCODING 253
SWIDTH 600 0
DWIDTH 6 0
BBX 4 6 1 0
BITMAP
E0
30
70
30
30
E0
ENDCHAR
STARTCHAR afii10096
ENCODING 254
SWIDTH 1000 0
DWIDTH 10 0
BBX 8 6 1 0
BITMAP
CE
DB
FB
DB
DB
CE
ENDCHAR
STARTCHAR afii10097
ENCODING 255
SWIDTH 700 0
DWIDTH 7 0
BBX 6 6 0 0
BITMAP
3C
6C
6C
3C
6C
CC
ENDCHAR
STARTCHAR fl
ENCODING -1
SWIDTH 711 0
DWIDTH 8 0
BBX 7 8 0 0
BITMAP
3E
66
F6
66
66
66
66
66
ENDCHAR
STARTCHAR Zcaron
ENCODING -1
SWIDTH 675 0
DWIDTH 7 0
BBX 5 9 1 0
BITMAP
58
30
00
F8
18
30
60
C0
F8
ENDCHAR
STARTCHAR oe
ENCODING -1
SWIDTH 990 0
DWIDTH 10 0
BBX 8 6 1 0
BITMAP
7E
DB
DB
DF
D8
7F
ENDCHAR
STARTCHAR Ydieresis
ENCODING -1
SWIDTH 738 0
DWIDTH 8 0
BBX 6 9 1 0
BITMAP
48
48
00
CC
CC
68
30
30
30
ENDCHAR
STARTCHAR dotlessi
ENCODING -1
SWIDTH 361 0
DWIDTH 4 0
BBX 2 6 1 0
BITMAP
C0
C0
C0
C0
C0
C0
ENDCHAR
STARTCHAR lslash
ENCODING -1
SWIDTH 361 0
DWIDTH 6 0
BBX 6 8 0 0
BITMAP
30
30
3C
F0
30
30
30
30
ENDCHAR
STARTCHAR Lslash
ENCODING -1
SWIDTH 620 0
DWIDTH 7 0
BBX 7 7 0 0
BITMAP
30
30
3C
F0
30
30
3E
ENDCHAR
STARTCHAR fi
ENCODING -1
SWIDTH 711 0
DWIDTH 8 0
BBX 7 8 0 0
BITMAP
3C
60
FE
66
66
66
66
66
ENDCHAR
STARTCHAR OE
ENCODING -1
SWIDTH 1102 0
DWIDTH 12 0
BBX 10 7 1 0
BITMAP
3FC0
6600
C600
C780
C600
6600
3FC0
ENDCHAR
STARTCHAR caron
ENCODING -1
SWIDTH 675 0
DWIDTH 7 0
BBX 4 2 2 7
BITMAP
B0
60
ENDCHAR
STARTCHAR ogonek
ENCODING -1
SWIDTH 675 0
DWIDTH 7 0
BBX 3 2 3 -2
BITMAP
80
60
ENDCHAR
STARTCHAR hungarumlaut
ENCODING -1
SWIDTH 675 0
DWIDTH 7 0
BBX 5 2 1 7
BITMAP
D8
90
ENDCHAR
STARTCHAR dotaccent
ENCODING -1
SWIDTH 675 0
DWIDTH 7 0
BBX 2 2 3 7
BITMAP
C0
C0
ENDCHAR
STARTCHAR breve
ENCODING -1
SWIDTH 675 0
DWIDTH 7 0
BBX 5 2 1 7
BITMAP
88
70
ENDCHAR
STARTCHAR tilde
ENCODING -1
SWIDTH 675 0
DWIDTH 7 0
BBX 5 2 1 7
BITMAP
68
B0
ENDCHAR
STARTCHAR circumflex
ENCODING -1
SWIDTH 675 0
DWIDTH 7 0
BBX 4 2 2 7
BITMAP
60
B0
ENDCHAR
STARTCHAR scaron
ENCODING -1
SWIDTH 622 0
DWIDTH 6 0
BBX 4 9 1 0
BITMAP
B0
60
00
70
C0
E0
70
30
E0
ENDCHAR
STARTCHAR ring
ENCODING -1
SWIDTH 675 0
DWIDTH 7 0
BBX 4 3 2 6
BITMAP
60
B0
60
ENDCHAR
STARTCHAR florin
ENCODING -1
SWIDTH 687 0
DWIDTH 7 0
BBX 5 8 1 -1
BITMAP
38
60
60
F8
60
60
C0
C0
ENDCHAR
STARTCHAR fraction
ENCODING -1
SWIDTH 93 0
DWIDTH 4 0
BBX 5 7 0 0
BITMAP
18
10
30
20
60
40
C0
ENDCHAR
STARTCHAR Scaron
ENCODING -1
SWIDTH 594 0
DWIDTH 7 0
BBX 5 9 1 0
BITMAP
58
30
00
78
C0
F0
78
18
F0
ENDCHAR
STARTCHAR zcaron
ENCODING -1
SWIDTH 608 0
DWIDTH 6 0
BBX 4 9 1 0
BITMAP
B0
60
00
F0
30
60
60
C0
F0
ENDCHAR
ENDFONT
